<svg xmlns="http://www.w3.org/2000/svg" xmlns:xlink="http://www.w3.org/1999/xlink" contentStyleType="text/css" height="669px" preserveAspectRatio="none" style="width:664px;height:669px;background:#FFFFFF;" version="1.1" viewBox="0 0 664 669" width="664px" zoomAndPan="magnify"><defs/><g><!--class products--><g id="elem_products"><rect codeLine="9" fill="#F1F1F1" height="234.2109" id="products" rx="2.5" ry="2.5" style="stroke:#181818;stroke-width:0.5;" width="202.6133" x="7" y="208"/><ellipse cx="77.2085" cy="224" fill="#FFAAAA" rx="11" ry="11" style="stroke:#181818;stroke-width:1.0;"/><path d="M78.1304,221.3906 L78.1304,228.0469 L79.2866,228.0469 Q79.896,228.0469 80.146,228.2813 Q80.4116,228.5156 80.4116,228.9063 Q80.4116,229.2813 80.146,229.5156 Q79.896,229.75 79.2866,229.75 L75.3022,229.75 Q74.6772,229.75 74.4116,229.5156 Q74.1616,229.2813 74.1616,228.8906 Q74.1616,228.5156 74.4116,228.2813 Q74.6772,228.0469 75.3022,228.0469 L76.4272,228.0469 L76.4272,221.3906 L74.5835,221.3906 L74.5835,223 Q74.5835,223.6094 74.3491,223.875 Q74.1147,224.1406 73.7397,224.1406 Q73.3647,224.1406 73.1304,223.875 Q72.896,223.6094 72.896,223 L72.896,219.6875 L81.7085,219.6875 L81.7085,223 Q81.7085,223.6094 81.4585,223.875 Q81.2241,224.1406 80.8491,224.1406 Q80.4741,224.1406 80.2397,223.875 Q80.0054,223.6094 80.0054,223 L80.0054,221.3906 L78.1304,221.3906 Z " fill="#000000"/><text fill="#000000" font-family="sans-serif" font-size="14" lengthAdjust="spacing" textLength="53.6963" x="97.7085" y="229.7969">products</text><line style="stroke:#181818;stroke-width:0.5;" x1="8" x2="208.6133" y1="240" y2="240"/><text fill="#000000" font-family="sans-serif" font-size="14" font-weight="bold" lengthAdjust="spacing" textLength="12.4414" x="13" y="259.1074">id</text><text fill="#000000" font-family="sans-serif" font-size="14" lengthAdjust="spacing" textLength="54.4482" x="29.3311" y="259.1074">: BIGINT</text><text fill="#000000" font-family="sans-serif" font-size="14" lengthAdjust="spacing" textLength="115.1514" x="13" y="277.7285">description : TEXT</text><text fill="#000000" font-family="sans-serif" font-size="14" lengthAdjust="spacing" textLength="190.6133" x="13" y="296.3496">weight : DOUBLE PRECISION</text><text fill="#000000" font-family="sans-serif" font-size="14" lengthAdjust="spacing" textLength="143.1855" x="13" y="314.9707">in_catalog : BOOLEAN</text><text fill="#000000" font-family="sans-serif" font-size="14" lengthAdjust="spacing" textLength="91.0137" x="13" y="333.5918">stock : BIGINT</text><text fill="#000000" font-family="sans-serif" font-size="14" lengthAdjust="spacing" textLength="115.9307" x="13" y="352.2129">threshold : BIGINT</text><text fill="#000000" font-family="sans-serif" font-size="14" lengthAdjust="spacing" textLength="125.2686" x="13" y="370.834">total_sales : BIGINT</text><line style="stroke:#181818;stroke-width:0.5;" x1="8" x2="208.6133" y1="378.3477" y2="378.3477"/><text fill="#000000" font-family="sans-serif" font-size="14" lengthAdjust="spacing" textLength="147.8271" x="13" y="397.4551">name : VARCHAR(100)</text><text fill="#000000" font-family="sans-serif" font-size="14" lengthAdjust="spacing" textLength="143.917" x="13" y="416.0762">price : NUMERIC(10,2)</text><text fill="#000000" font-family="sans-serif" font-size="14" lengthAdjust="spacing" textLength="158.7168" x="13" y="434.6973">category : VARCHAR(20)</text></g><!--class history--><g id="elem_history"><rect codeLine="22" fill="#F1F1F1" height="122.4844" id="history" rx="2.5" ry="2.5" style="stroke:#181818;stroke-width:0.5;" width="170.7236" x="23" y="7"/><ellipse cx="83.4946" cy="23" fill="#FFAAAA" rx="11" ry="11" style="stroke:#181818;stroke-width:1.0;"/><path d="M84.4165,20.3906 L84.4165,27.0469 L85.5728,27.0469 Q86.1821,27.0469 86.4321,27.2813 Q86.6978,27.5156 86.6978,27.9063 Q86.6978,28.2813 86.4321,28.5156 Q86.1821,28.75 85.5728,28.75 L81.5884,28.75 Q80.9634,28.75 80.6978,28.5156 Q80.4478,28.2813 80.4478,27.8906 Q80.4478,27.5156 80.6978,27.2813 Q80.9634,27.0469 81.5884,27.0469 L82.7134,27.0469 L82.7134,20.3906 L80.8696,20.3906 L80.8696,22 Q80.8696,22.6094 80.6353,22.875 Q80.4009,23.1406 80.0259,23.1406 Q79.6509,23.1406 79.4165,22.875 Q79.1821,22.6094 79.1821,22 L79.1821,18.6875 L87.9946,18.6875 L87.9946,22 Q87.9946,22.6094 87.7446,22.875 Q87.5103,23.1406 87.1353,23.1406 Q86.7603,23.1406 86.5259,22.875 Q86.2915,22.6094 86.2915,22 L86.2915,20.3906 L84.4165,20.3906 Z " fill="#000000"/><text fill="#000000" font-family="sans-serif" font-size="14" lengthAdjust="spacing" textLength="41.2344" x="103.9946" y="28.7969">history</text><line style="stroke:#181818;stroke-width:0.5;" x1="24" x2="192.7236" y1="39" y2="39"/><text fill="#000000" font-family="sans-serif" font-size="14" font-weight="bold" lengthAdjust="spacing" textLength="12.4414" x="29" y="58.1074">id</text><text fill="#000000" font-family="sans-serif" font-size="14" lengthAdjust="spacing" textLength="54.4482" x="45.3311" y="58.1074">: BIGINT</text><text fill="#000000" font-family="sans-serif" font-size="14" font-style="italic" lengthAdjust="spacing" textLength="65.3789" x="29" y="76.7285">product_id</text><text fill="#000000" font-family="sans-serif" font-size="14" lengthAdjust="spacing" textLength="54.4482" x="98.2686" y="76.7285">: BIGINT</text><text fill="#000000" font-family="sans-serif" font-size="14" lengthAdjust="spacing" textLength="157.9102" x="29" y="95.3496">timestamp : TIMESTAMP</text><line style="stroke:#181818;stroke-width:0.5;" x1="24" x2="192.7236" y1="102.8633" y2="102.8633"/><text fill="#000000" font-family="sans-serif" font-size="14" lengthAdjust="spacing" textLength="158.7236" x="29" y="121.9707">user_id : VARCHAR(100)</text></g><!--class promotions--><g id="elem_promotions"><rect codeLine="29" fill="#F1F1F1" height="141.1055" id="promotions" rx="2.5" ry="2.5" style="stroke:#181818;stroke-width:0.5;" width="213.5234" x="281.5" y="521"/><ellipse cx="349.3843" cy="537" fill="#FFAAAA" rx="11" ry="11" style="stroke:#181818;stroke-width:1.0;"/><path d="M350.3062,534.3906 L350.3062,541.0469 L351.4624,541.0469 Q352.0718,541.0469 352.3218,541.2813 Q352.5874,541.5156 352.5874,541.9063 Q352.5874,542.2813 352.3218,542.5156 Q352.0718,542.75 351.4624,542.75 L347.478,542.75 Q346.853,542.75 346.5874,542.5156 Q346.3374,542.2813 346.3374,541.8906 Q346.3374,541.5156 346.5874,541.2813 Q346.853,541.0469 347.478,541.0469 L348.603,541.0469 L348.603,534.3906 L346.7593,534.3906 L346.7593,536 Q346.7593,536.6094 346.5249,536.875 Q346.2905,537.1406 345.9155,537.1406 Q345.5405,537.1406 345.3062,536.875 Q345.0718,536.6094 345.0718,536 L345.0718,532.6875 L353.8843,532.6875 L353.8843,536 Q353.8843,536.6094 353.6343,536.875 Q353.3999,537.1406 353.0249,537.1406 Q352.6499,537.1406 352.4155,536.875 Q352.1812,536.6094 352.1812,536 L352.1812,534.3906 L350.3062,534.3906 Z " fill="#000000"/><text fill="#000000" font-family="sans-serif" font-size="14" lengthAdjust="spacing" textLength="69.2549" x="369.8843" y="542.7969">promotions</text><line style="stroke:#181818;stroke-width:0.5;" x1="282.5" x2="494.0234" y1="553" y2="553"/><text fill="#000000" font-family="sans-serif" font-size="14" font-weight="bold" lengthAdjust="spacing" textLength="12.4414" x="287.5" y="572.1074">id</text><text fill="#000000" font-family="sans-serif" font-size="14" lengthAdjust="spacing" textLength="54.4482" x="303.8311" y="572.1074">: BIGINT</text><text fill="#000000" font-family="sans-serif" font-size="14" lengthAdjust="spacing" textLength="111.2686" x="287.5" y="590.7285">start_date : DATE</text><text fill="#000000" font-family="sans-serif" font-size="14" lengthAdjust="spacing" textLength="107.3994" x="287.5" y="609.3496">end_date : DATE</text><text fill="#000000" font-family="sans-serif" font-size="14" lengthAdjust="spacing" textLength="108.9307" x="287.5" y="627.9707">discount : FLOAT</text><line style="stroke:#181818;stroke-width:0.5;" x1="282.5" x2="494.0234" y1="635.4844" y2="635.4844"/><text fill="#000000" font-family="sans-serif" font-size="14" lengthAdjust="spacing" textLength="201.5234" x="287.5" y="654.5918">promotion_type : VARCHAR(30)</text></g><!--class promotion_quantities--><g id="elem_promotion_quantities"><rect codeLine="37" fill="#F1F1F1" height="122.4844" id="promotion_quantities" rx="2.5" ry="2.5" style="stroke:#181818;stroke-width:0.5;" width="170.7168" x="245" y="264"/><ellipse cx="263.9353" cy="280" fill="#FFAAAA" rx="11" ry="11" style="stroke:#181818;stroke-width:1.0;"/><path d="M264.8572,277.3906 L264.8572,284.0469 L266.0134,284.0469 Q266.6228,284.0469 266.8728,284.2813 Q267.1384,284.5156 267.1384,284.9063 Q267.1384,285.2813 266.8728,285.5156 Q266.6228,285.75 266.0134,285.75 L262.0291,285.75 Q261.4041,285.75 261.1384,285.5156 Q260.8884,285.2813 260.8884,284.8906 Q260.8884,284.5156 261.1384,284.2813 Q261.4041,284.0469 262.0291,284.0469 L263.1541,284.0469 L263.1541,277.3906 L261.3103,277.3906 L261.3103,279 Q261.3103,279.6094 261.0759,279.875 Q260.8416,280.1406 260.4666,280.1406 Q260.0916,280.1406 259.8572,279.875 Q259.6228,279.6094 259.6228,279 L259.6228,275.6875 L268.4353,275.6875 L268.4353,279 Q268.4353,279.6094 268.1853,279.875 Q267.9509,280.1406 267.5759,280.1406 Q267.2009,280.1406 266.9666,279.875 Q266.7322,279.6094 266.7322,279 L266.7322,277.3906 L264.8572,277.3906 Z " fill="#000000"/><text fill="#000000" font-family="sans-serif" font-size="14" lengthAdjust="spacing" textLength="129.9717" x="278.8098" y="285.7969">promotion_quantities</text><line style="stroke:#181818;stroke-width:0.5;" x1="246" x2="414.7168" y1="296" y2="296"/><text fill="#000000" font-family="sans-serif" font-size="14" font-weight="bold" lengthAdjust="spacing" textLength="12.4414" x="251" y="315.1074">id</text><text fill="#000000" font-family="sans-serif" font-size="14" lengthAdjust="spacing" textLength="54.4482" x="267.3311" y="315.1074">: BIGINT</text><text fill="#000000" font-family="sans-serif" font-size="14" lengthAdjust="spacing" textLength="83.2549" x="251" y="333.7285">quantity : INT</text><text fill="#000000" font-family="sans-serif" font-size="14" font-style="italic" lengthAdjust="spacing" textLength="80.9375" x="251" y="352.3496">promotion_id</text><text fill="#000000" font-family="sans-serif" font-size="14" lengthAdjust="spacing" textLength="54.4482" x="335.8271" y="352.3496">: BIGINT</text><line style="stroke:#181818;stroke-width:0.5;" x1="246" x2="414.7168" y1="359.8633" y2="359.8633"/><text fill="#000000" font-family="sans-serif" font-size="14" lengthAdjust="spacing" textLength="158.7168" x="251" y="378.9707">category : VARCHAR(30)</text></g><!--class promotion_season--><g id="elem_promotion_season"><rect codeLine="44" fill="#F1F1F1" height="103.8633" id="promotion_season" rx="2.5" ry="2.5" style="stroke:#181818;stroke-width:0.5;" width="159.8271" x="451.5" y="273"/><ellipse cx="472.1887" cy="289" fill="#FFAAAA" rx="11" ry="11" style="stroke:#181818;stroke-width:1.0;"/><path d="M473.1106,286.3906 L473.1106,293.0469 L474.2668,293.0469 Q474.8762,293.0469 475.1262,293.2813 Q475.3918,293.5156 475.3918,293.9063 Q475.3918,294.2813 475.1262,294.5156 Q474.8762,294.75 474.2668,294.75 L470.2825,294.75 Q469.6575,294.75 469.3918,294.5156 Q469.1418,294.2813 469.1418,293.8906 Q469.1418,293.5156 469.3918,293.2813 Q469.6575,293.0469 470.2825,293.0469 L471.4075,293.0469 L471.4075,286.3906 L469.5637,286.3906 L469.5637,288 Q469.5637,288.6094 469.3293,288.875 Q469.095,289.1406 468.72,289.1406 Q468.345,289.1406 468.1106,288.875 Q467.8762,288.6094 467.8762,288 L467.8762,284.6875 L476.6887,284.6875 L476.6887,288 Q476.6887,288.6094 476.4387,288.875 Q476.2043,289.1406 475.8293,289.1406 Q475.4543,289.1406 475.22,288.875 Q474.9856,288.6094 474.9856,288 L474.9856,286.3906 L473.1106,286.3906 Z " fill="#000000"/><text fill="#000000" font-family="sans-serif" font-size="14" lengthAdjust="spacing" textLength="115.1855" x="487.4529" y="294.7969">promotion_season</text><line style="stroke:#181818;stroke-width:0.5;" x1="452.5" x2="610.3271" y1="305" y2="305"/><text fill="#000000" font-family="sans-serif" font-size="14" font-weight="bold" lengthAdjust="spacing" textLength="12.4414" x="457.5" y="324.1074">id</text><text fill="#000000" font-family="sans-serif" font-size="14" lengthAdjust="spacing" textLength="54.4482" x="473.8311" y="324.1074">: BIGINT</text><text fill="#000000" font-family="sans-serif" font-size="14" font-style="italic" lengthAdjust="spacing" textLength="10.8965" x="457.5" y="342.7285">id</text><text fill="#000000" font-family="sans-serif" font-size="14" lengthAdjust="spacing" textLength="54.4482" x="472.2861" y="342.7285">: BIGINT</text><line style="stroke:#181818;stroke-width:0.5;" x1="452.5" x2="610.3271" y1="350.2422" y2="350.2422"/><text fill="#000000" font-family="sans-serif" font-size="14" lengthAdjust="spacing" textLength="147.8271" x="457.5" y="369.3496">name : VARCHAR(100)</text></g><!--class promotion_season_categories--><g id="elem_promotion_season_categories"><rect codeLine="50" fill="#F1F1F1" height="103.8633" id="promotion_season_categories" rx="2.5" ry="2.5" style="stroke:#181818;stroke-width:0.5;" width="219.5645" x="421.5" y="16"/><ellipse cx="436.5" cy="32" fill="#FFAAAA" rx="11" ry="11" style="stroke:#181818;stroke-width:1.0;"/><path d="M437.4219,29.3906 L437.4219,36.0469 L438.5781,36.0469 Q439.1875,36.0469 439.4375,36.2813 Q439.7031,36.5156 439.7031,36.9063 Q439.7031,37.2813 439.4375,37.5156 Q439.1875,37.75 438.5781,37.75 L434.5938,37.75 Q433.9688,37.75 433.7031,37.5156 Q433.4531,37.2813 433.4531,36.8906 Q433.4531,36.5156 433.7031,36.2813 Q433.9688,36.0469 434.5938,36.0469 L435.7188,36.0469 L435.7188,29.3906 L433.875,29.3906 L433.875,31 Q433.875,31.6094 433.6406,31.875 Q433.4063,32.1406 433.0313,32.1406 Q432.6563,32.1406 432.4219,31.875 Q432.1875,31.6094 432.1875,31 L432.1875,27.6875 L441,27.6875 L441,31 Q441,31.6094 440.75,31.875 Q440.5156,32.1406 440.1406,32.1406 Q439.7656,32.1406 439.5313,31.875 Q439.2969,31.6094 439.2969,31 L439.2969,29.3906 L437.4219,29.3906 Z " fill="#000000"/><text fill="#000000" font-family="sans-serif" font-size="14" lengthAdjust="spacing" textLength="187.5645" x="450.5" y="37.7969">promotion_season_categories</text><line style="stroke:#181818;stroke-width:0.5;" x1="422.5" x2="640.0645" y1="48" y2="48"/><text fill="#000000" font-family="sans-serif" font-size="14" font-weight="bold" lengthAdjust="spacing" textLength="145.4688" x="427.5" y="67.1074">promotion_season_id</text><text fill="#000000" font-family="sans-serif" font-size="14" lengthAdjust="spacing" textLength="54.4482" x="576.8584" y="67.1074">: BIGINT</text><text fill="#000000" font-family="sans-serif" font-size="14" font-style="italic" lengthAdjust="spacing" textLength="133.8682" x="427.5" y="85.7285">promotion_season_id</text><text fill="#000000" font-family="sans-serif" font-size="14" lengthAdjust="spacing" textLength="54.4482" x="565.2578" y="85.7285">: BIGINT</text><line style="stroke:#181818;stroke-width:0.5;" x1="422.5" x2="640.0645" y1="93.2422" y2="93.2422"/><text fill="#000000" font-family="sans-serif" font-size="14" font-weight="bold" lengthAdjust="spacing" textLength="58.3584" x="427.5" y="112.3496">category</text><text fill="#000000" font-family="sans-serif" font-size="14" lengthAdjust="spacing" textLength="101.1309" x="489.748" y="112.3496">: VARCHAR(30)</text></g><!--link history to products--><g id="link_history_products"><path codeLine="56" d="M108.5,129.11 C108.5,152.74 108.5,174.71 108.5,201.97 " fill="none" id="history-to-products" style="stroke:#181818;stroke-width:1.0;"/><polygon fill="#181818" points="108.5,207.97,112.5,198.97,108.5,202.97,104.5,198.97,108.5,207.97" style="stroke:#181818;stroke-width:1.0;"/><text fill="#000000" font-family="sans-serif" font-size="13" lengthAdjust="spacing" textLength="60.709" x="109.5" y="174.0283">product_id</text></g><!--link promotion_quantities to promotions--><g id="link_promotion_quantities_promotions"><path codeLine="57" d="M343.66,386.02 C352.45,426.11 362.7541,473.0994 371.9541,515.0294 " fill="none" id="promotion_quantities-to-promotions" style="stroke:#181818;stroke-width:1.0;"/><polygon fill="#181818" points="373.24,520.89,375.2182,511.2419,372.1684,516.0062,367.4041,512.9564,373.24,520.89" style="stroke:#181818;stroke-width:1.0;"/><text fill="#000000" font-family="sans-serif" font-size="13" lengthAdjust="spacing" textLength="75.1563" x="367.5" y="487.0283">promotion_id</text></g><!--link promotion_season to promotions--><g id="link_promotion_season_promotions"><path codeLine="58" d="M507.99,377.23 C492.48,410.16 471.26,453.61 450.5,491 C445.07,500.79 442.2121,505.8242 436.2021,515.7742 " fill="none" id="promotion_season-to-promotions" style="stroke:#181818;stroke-width:1.0;"/><polygon fill="#181818" points="433.1,520.91,441.1771,515.2744,435.6851,516.6301,434.3293,511.1382,433.1,520.91" style="stroke:#181818;stroke-width:1.0;"/><text fill="#000000" font-family="sans-serif" font-size="13" lengthAdjust="spacing" textLength="72.2554" x="461.5" y="487.0283">id (herencia)</text></g><!--link promotion_season_categories to promotion_season--><g id="link_promotion_season_categories_promotion_season"><path codeLine="59" d="M531.5,120.3 C531.5,164.65 531.5,222.45 531.5,266.79 " fill="none" id="promotion_season_categories-to-promotion_season" style="stroke:#181818;stroke-width:1.0;"/><polygon fill="#181818" points="531.5,272.79,535.5,263.79,531.5,267.79,527.5,263.79,531.5,272.79" style="stroke:#181818;stroke-width:1.0;"/><text fill="#000000" font-family="sans-serif" font-size="13" lengthAdjust="spacing" textLength="124.3062" x="532.5" y="174.0283">promotion_season_id</text></g><!--SRC=[fLDDZvim4BtxLxZgeK7QDEdkBOgGs9IqIFbO9MpL6tAmDum2DhMD6hhgVw_vIiX2AwHodFTctlERuKEaTQfcaqaQ4wwp9FuOYcG2R4o172L947f7sGjmXZKvn6nqjd0O4wNm6S_dUEJVlLyk7VDPsBOlr5H2GcGUd5XUDCmFzda-ELpn5o4P7Fa5Xm876o5r0fuI8rk9E5fBE6IQUQ7WU_Z5y1HXyw7AIoe5pKAjBFnQbjkoG2qymu_U5s_Zbo0d2JELRyvkyTNPZJvDfrPPfqo54b8DWXlOTx_xpQomu6-Ur-xEMnZ-tNtLyDDOZxI1Fc-V7rSkVjgv2s_lRJSb6XBDZaBcBQdxMWbuO50IYsFXRBjTkKxLexG8JxTkTIIPYaHCtvI5wGyKYPcw0hzHdKS4PfBC1yMHAIO3e7s9jBTJHnnq-ZKaJ6cIf4LetjhT-yxwwMh5z2MYo7JOSimagGDgiYjoTNoth39EEpKAAXGPB_9VhhPEiwnQBT1vsjxoWtbIrrFm8pEt3XhOC7SrlTXfK-fPyqD_VBNapT0UIueH9VX_NN9RU9XSK3_ZBq5qw1qhRNOJYJKuaxwfncjzndWyjd7pYnl2zHHHtoORUdrsLSCbVFHMjKitFyCeOfBn48Y5_X7LRMipRuPx7eR-0000]--></g></svg>