<svg xmlns="http://www.w3.org/2000/svg" xmlns:xlink="http://www.w3.org/1999/xlink" contentStyleType="text/css" height="595px" preserveAspectRatio="none" style="width:928px;height:595px;background:#FFFFFF;" version="1.1" viewBox="0 0 928 595" width="928px" zoomAndPan="magnify"><defs/><g><!--class Category--><g id="elem_Category"><rect codeLine="3" fill="#F1F1F1" height="141.1055" id="Category" rx="2.5" ry="2.5" style="stroke:#181818;stroke-width:0.5;" width="88.8066" x="7" y="7"/><ellipse cx="22" cy="23" fill="#EB937F" rx="11" ry="11" style="stroke:#181818;stroke-width:1.0;"/><path d="M20.8594,23.7969 L20.8594,26.2969 L25.1875,26.2969 L25.1875,25.375 Q25.1875,24.7656 25.4219,24.5 Q25.6719,24.2344 26.0469,24.2344 Q26.4219,24.2344 26.6563,24.5 Q26.8906,24.7656 26.8906,25.375 L26.8906,28 L18.8906,28 Q18.2656,28 18,27.7656 Q17.75,27.5313 17.75,27.1406 Q17.75,26.7656 18.0156,26.5313 Q18.2813,26.2969 18.8906,26.2969 L19.1563,26.2969 L19.1563,19.6406 L18.8906,19.6406 Q18.2656,19.6406 18,19.4063 Q17.75,19.1719 17.75,18.7813 Q17.75,18.4063 18,18.1719 Q18.2656,17.9375 18.8906,17.9375 L26.5156,17.9375 L26.5156,20.5313 Q26.5156,21.1406 26.2813,21.4063 Q26.0625,21.6563 25.6719,21.6563 Q25.2969,21.6563 25.0625,21.4063 Q24.8281,21.1406 24.8281,20.5313 L24.8281,19.6406 L20.8594,19.6406 L20.8594,22.0938 L22.3438,22.0938 Q22.3438,21.4375 22.4688,21.25 Q22.7344,20.8438 23.2031,20.8438 Q23.5781,20.8438 23.8125,21.1094 Q24.0469,21.3594 24.0469,21.9688 L24.0469,23.9375 Q24.0469,24.4844 23.9219,24.6719 Q23.6563,25.0625 23.2031,25.0625 Q22.7344,25.0625 22.4688,24.6563 Q22.3438,24.4688 22.3438,23.7969 L20.8594,23.7969 Z " fill="#000000"/><text fill="#000000" font-family="sans-serif" font-size="14" lengthAdjust="spacing" textLength="56.8066" x="36" y="28.7969">Category</text><line style="stroke:#181818;stroke-width:0.5;" x1="8" x2="94.8066" y1="39" y2="39"/><text fill="#000000" font-family="sans-serif" font-size="14" lengthAdjust="spacing" textLength="38.1172" x="13" y="58.1074">TOYS</text><text fill="#000000" font-family="sans-serif" font-size="14" lengthAdjust="spacing" textLength="49.793" x="13" y="76.7285">BOOKS</text><text fill="#000000" font-family="sans-serif" font-size="14" lengthAdjust="spacing" textLength="57.5654" x="13" y="95.3496">SPORTS</text><text fill="#000000" font-family="sans-serif" font-size="14" lengthAdjust="spacing" textLength="38.124" x="13" y="113.9707">MEAL</text><text fill="#000000" font-family="sans-serif" font-size="14" lengthAdjust="spacing" textLength="66.124" x="13" y="132.5918">CLOTHES</text><line style="stroke:#181818;stroke-width:0.5;" x1="8" x2="94.8066" y1="140.1055" y2="140.1055"/></g><!--class PromotionType--><g id="elem_PromotionType"><rect codeLine="11" fill="#F1F1F1" height="85.2422" id="PromotionType" rx="2.5" ry="2.5" style="stroke:#181818;stroke-width:0.5;" width="126.9307" x="131" y="35"/><ellipse cx="146" cy="51" fill="#EB937F" rx="11" ry="11" style="stroke:#181818;stroke-width:1.0;"/><path d="M144.8594,51.7969 L144.8594,54.2969 L149.1875,54.2969 L149.1875,53.375 Q149.1875,52.7656 149.4219,52.5 Q149.6719,52.2344 150.0469,52.2344 Q150.4219,52.2344 150.6563,52.5 Q150.8906,52.7656 150.8906,53.375 L150.8906,56 L142.8906,56 Q142.2656,56 142,55.7656 Q141.75,55.5313 141.75,55.1406 Q141.75,54.7656 142.0156,54.5313 Q142.2813,54.2969 142.8906,54.2969 L143.1563,54.2969 L143.1563,47.6406 L142.8906,47.6406 Q142.2656,47.6406 142,47.4063 Q141.75,47.1719 141.75,46.7813 Q141.75,46.4063 142,46.1719 Q142.2656,45.9375 142.8906,45.9375 L150.5156,45.9375 L150.5156,48.5313 Q150.5156,49.1406 150.2813,49.4063 Q150.0625,49.6563 149.6719,49.6563 Q149.2969,49.6563 149.0625,49.4063 Q148.8281,49.1406 148.8281,48.5313 L148.8281,47.6406 L144.8594,47.6406 L144.8594,50.0938 L146.3438,50.0938 Q146.3438,49.4375 146.4688,49.25 Q146.7344,48.8438 147.2031,48.8438 Q147.5781,48.8438 147.8125,49.1094 Q148.0469,49.3594 148.0469,49.9688 L148.0469,51.9375 Q148.0469,52.4844 147.9219,52.6719 Q147.6563,53.0625 147.2031,53.0625 Q146.7344,53.0625 146.4688,52.6563 Q146.3438,52.4688 146.3438,51.7969 L144.8594,51.7969 Z " fill="#000000"/><text fill="#000000" font-family="sans-serif" font-size="14" lengthAdjust="spacing" textLength="94.9307" x="160" y="56.7969">PromotionType</text><line style="stroke:#181818;stroke-width:0.5;" x1="132" x2="256.9307" y1="67" y2="67"/><text fill="#000000" font-family="sans-serif" font-size="14" lengthAdjust="spacing" textLength="58.3516" x="137" y="86.1074">SEASON</text><text fill="#000000" font-family="sans-serif" font-size="14" lengthAdjust="spacing" textLength="70.7793" x="137" y="104.7285">QUANTITY</text><line style="stroke:#181818;stroke-width:0.5;" x1="132" x2="256.9307" y1="112.2422" y2="112.2422"/></g><!--class Product--><g id="elem_Product"><rect codeLine="16" fill="#F1F1F1" height="196.9688" id="Product" rx="2.5" ry="2.5" style="stroke:#181818;stroke-width:0.5;" width="189.4268" x="286" y="227"/><ellipse cx="352.3394" cy="243" fill="#ADD1B2" rx="11" ry="11" style="stroke:#181818;stroke-width:1.0;"/><path d="M355.105,238.875 Q355.2612,238.6563 355.4487,238.5469 Q355.6362,238.4375 355.855,238.4375 Q356.23,238.4375 356.4644,238.7031 Q356.6987,238.9531 356.6987,239.5625 L356.6987,241.0156 Q356.6987,241.625 356.4644,241.8906 Q356.23,242.1563 355.855,242.1563 Q355.5112,242.1563 355.3081,241.9531 Q355.105,241.7656 354.9956,241.25 Q354.9487,240.8906 354.7612,240.7031 Q354.4331,240.3281 353.8237,240.1094 Q353.2144,239.8906 352.5894,239.8906 Q351.8237,239.8906 351.1831,240.2188 Q350.5581,240.5469 350.0581,241.2969 Q349.5737,242.0469 349.5737,243.0781 L349.5737,244.1719 Q349.5737,245.4063 350.4644,246.2344 Q351.355,247.0469 352.9487,247.0469 Q353.8862,247.0469 354.5425,246.7969 Q354.9331,246.6406 355.355,246.2031 Q355.6206,245.9375 355.7612,245.8594 Q355.9175,245.7813 356.1206,245.7813 Q356.4487,245.7813 356.6987,246.0469 Q356.9644,246.2969 356.9644,246.6406 Q356.9644,246.9844 356.6206,247.3906 Q356.1206,247.9688 355.3237,248.2969 Q354.2456,248.75 352.9487,248.75 Q351.4331,248.75 350.23,248.125 Q349.2456,247.625 348.5581,246.5625 Q347.8706,245.4844 347.8706,244.2031 L347.8706,243.0469 Q347.8706,241.7188 348.48,240.5781 Q349.105,239.4219 350.1987,238.8125 Q351.2925,238.1875 352.5269,238.1875 Q353.2612,238.1875 353.9019,238.3594 Q354.5581,238.5156 355.105,238.875 Z " fill="#000000"/><text fill="#000000" font-family="sans-serif" font-size="14" lengthAdjust="spacing" textLength="48.248" x="372.8394" y="248.7969">Product</text><line style="stroke:#181818;stroke-width:0.5;" x1="287" x2="474.4268" y1="259" y2="259"/><text fill="#000000" font-family="sans-serif" font-size="14" lengthAdjust="spacing" textLength="45.9307" x="292" y="278.1074">Long id</text><text fill="#000000" font-family="sans-serif" font-size="14" lengthAdjust="spacing" textLength="75.4824" x="292" y="296.7285">String name</text><text fill="#000000" font-family="sans-serif" font-size="14" lengthAdjust="spacing" textLength="108.165" x="292" y="315.3496">String description</text><text fill="#000000" font-family="sans-serif" font-size="14" lengthAdjust="spacing" textLength="105.0342" x="292" y="333.9707">BigDecimal price</text><text fill="#000000" font-family="sans-serif" font-size="14" lengthAdjust="spacing" textLength="88.7236" x="292" y="352.5918">Double weight</text><text fill="#000000" font-family="sans-serif" font-size="14" lengthAdjust="spacing" textLength="114.3926" x="292" y="371.2129">Category category</text><text fill="#000000" font-family="sans-serif" font-size="14" lengthAdjust="spacing" textLength="112.8682" x="292" y="389.834">boolean inCatalog</text><text fill="#000000" font-family="sans-serif" font-size="14" lengthAdjust="spacing" textLength="177.4268" x="292" y="408.4551">InventoryData inventoryData</text><line style="stroke:#181818;stroke-width:0.5;" x1="287" x2="474.4268" y1="415.9688" y2="415.9688"/></g><!--class InventoryData--><g id="elem_InventoryData"><rect codeLine="27" fill="#F1F1F1" height="103.8633" id="InventoryData" rx="2.5" ry="2.5" style="stroke:#181818;stroke-width:0.5;" width="119.1582" x="321" y="485"/><ellipse cx="336" cy="501" fill="#ADD1B2" rx="11" ry="11" style="stroke:#181818;stroke-width:1.0;"/><path d="M338.7656,496.875 Q338.9219,496.6563 339.1094,496.5469 Q339.2969,496.4375 339.5156,496.4375 Q339.8906,496.4375 340.125,496.7031 Q340.3594,496.9531 340.3594,497.5625 L340.3594,499.0156 Q340.3594,499.625 340.125,499.8906 Q339.8906,500.1563 339.5156,500.1563 Q339.1719,500.1563 338.9688,499.9531 Q338.7656,499.7656 338.6563,499.25 Q338.6094,498.8906 338.4219,498.7031 Q338.0938,498.3281 337.4844,498.1094 Q336.875,497.8906 336.25,497.8906 Q335.4844,497.8906 334.8438,498.2188 Q334.2188,498.5469 333.7188,499.2969 Q333.2344,500.0469 333.2344,501.0781 L333.2344,502.1719 Q333.2344,503.4063 334.125,504.2344 Q335.0156,505.0469 336.6094,505.0469 Q337.5469,505.0469 338.2031,504.7969 Q338.5938,504.6406 339.0156,504.2031 Q339.2813,503.9375 339.4219,503.8594 Q339.5781,503.7813 339.7813,503.7813 Q340.1094,503.7813 340.3594,504.0469 Q340.625,504.2969 340.625,504.6406 Q340.625,504.9844 340.2813,505.3906 Q339.7813,505.9688 338.9844,506.2969 Q337.9063,506.75 336.6094,506.75 Q335.0938,506.75 333.8906,506.125 Q332.9063,505.625 332.2188,504.5625 Q331.5313,503.4844 331.5313,502.2031 L331.5313,501.0469 Q331.5313,499.7188 332.1406,498.5781 Q332.7656,497.4219 333.8594,496.8125 Q334.9531,496.1875 336.1875,496.1875 Q336.9219,496.1875 337.5625,496.3594 Q338.2188,496.5156 338.7656,496.875 Z " fill="#000000"/><text fill="#000000" font-family="sans-serif" font-size="14" lengthAdjust="spacing" textLength="87.1582" x="350" y="506.7969">InventoryData</text><line style="stroke:#181818;stroke-width:0.5;" x1="322" x2="439.1582" y1="517" y2="517"/><text fill="#000000" font-family="sans-serif" font-size="14" lengthAdjust="spacing" textLength="51.3516" x="327" y="536.1074">int stock</text><text fill="#000000" font-family="sans-serif" font-size="14" lengthAdjust="spacing" textLength="76.2686" x="327" y="554.7285">int threshold</text><text fill="#000000" font-family="sans-serif" font-size="14" lengthAdjust="spacing" textLength="80.1582" x="327" y="573.3496">int totalSales</text><line style="stroke:#181818;stroke-width:0.5;" x1="322" x2="439.1582" y1="580.8633" y2="580.8633"/></g><!--class History--><g id="elem_History"><rect codeLine="33" fill="#F1F1F1" height="103.8633" id="History" rx="2.5" ry="2.5" style="stroke:#181818;stroke-width:0.5;" width="174.6133" x="293" y="25.5"/><ellipse cx="354.2773" cy="41.5" fill="#ADD1B2" rx="11" ry="11" style="stroke:#181818;stroke-width:1.0;"/><path d="M357.043,37.375 Q357.1992,37.1563 357.3867,37.0469 Q357.5742,36.9375 357.793,36.9375 Q358.168,36.9375 358.4023,37.2031 Q358.6367,37.4531 358.6367,38.0625 L358.6367,39.5156 Q358.6367,40.125 358.4023,40.3906 Q358.168,40.6563 357.793,40.6563 Q357.4492,40.6563 357.2461,40.4531 Q357.043,40.2656 356.9336,39.75 Q356.8867,39.3906 356.6992,39.2031 Q356.3711,38.8281 355.7617,38.6094 Q355.1523,38.3906 354.5273,38.3906 Q353.7617,38.3906 353.1211,38.7188 Q352.4961,39.0469 351.9961,39.7969 Q351.5117,40.5469 351.5117,41.5781 L351.5117,42.6719 Q351.5117,43.9063 352.4023,44.7344 Q353.293,45.5469 354.8867,45.5469 Q355.8242,45.5469 356.4805,45.2969 Q356.8711,45.1406 357.293,44.7031 Q357.5586,44.4375 357.6992,44.3594 Q357.8555,44.2813 358.0586,44.2813 Q358.3867,44.2813 358.6367,44.5469 Q358.9023,44.7969 358.9023,45.1406 Q358.9023,45.4844 358.5586,45.8906 Q358.0586,46.4688 357.2617,46.7969 Q356.1836,47.25 354.8867,47.25 Q353.3711,47.25 352.168,46.625 Q351.1836,46.125 350.4961,45.0625 Q349.8086,43.9844 349.8086,42.7031 L349.8086,41.5469 Q349.8086,40.2188 350.418,39.0781 Q351.043,37.9219 352.1367,37.3125 Q353.2305,36.6875 354.4648,36.6875 Q355.1992,36.6875 355.8398,36.8594 Q356.4961,37.0156 357.043,37.375 Z " fill="#000000"/><text fill="#000000" font-family="sans-serif" font-size="14" lengthAdjust="spacing" textLength="43.5586" x="374.7773" y="47.2969">History</text><line style="stroke:#181818;stroke-width:0.5;" x1="294" x2="466.6133" y1="57.5" y2="57.5"/><text fill="#000000" font-family="sans-serif" font-size="14" lengthAdjust="spacing" textLength="79.3721" x="299" y="76.6074">String userId</text><text fill="#000000" font-family="sans-serif" font-size="14" lengthAdjust="spacing" textLength="93.4063" x="299" y="95.2285">Long productId</text><text fill="#000000" font-family="sans-serif" font-size="14" lengthAdjust="spacing" textLength="162.6133" x="299" y="113.8496">LocalDateTime timestamp</text><line style="stroke:#181818;stroke-width:0.5;" x1="294" x2="466.6133" y1="121.3633" y2="121.3633"/></g><!--class Promotion--><g id="elem_Promotion"><rect codeLine="39" fill="#F1F1F1" height="141.1055" id="Promotion" rx="2.5" ry="2.5" style="stroke:#181818;stroke-width:0.5;" width="204.1992" x="604.5" y="7"/><ellipse cx="670.4463" cy="23" fill="#ADD1B2" rx="11" ry="11" style="stroke:#181818;stroke-width:1.0;"/><path d="M673.2119,18.875 Q673.3682,18.6563 673.5557,18.5469 Q673.7432,18.4375 673.9619,18.4375 Q674.3369,18.4375 674.5713,18.7031 Q674.8057,18.9531 674.8057,19.5625 L674.8057,21.0156 Q674.8057,21.625 674.5713,21.8906 Q674.3369,22.1563 673.9619,22.1563 Q673.6182,22.1563 673.415,21.9531 Q673.2119,21.7656 673.1025,21.25 Q673.0557,20.8906 672.8682,20.7031 Q672.54,20.3281 671.9307,20.1094 Q671.3213,19.8906 670.6963,19.8906 Q669.9307,19.8906 669.29,20.2188 Q668.665,20.5469 668.165,21.2969 Q667.6807,22.0469 667.6807,23.0781 L667.6807,24.1719 Q667.6807,25.4063 668.5713,26.2344 Q669.4619,27.0469 671.0557,27.0469 Q671.9932,27.0469 672.6494,26.7969 Q673.04,26.6406 673.4619,26.2031 Q673.7275,25.9375 673.8682,25.8594 Q674.0244,25.7813 674.2275,25.7813 Q674.5557,25.7813 674.8057,26.0469 Q675.0713,26.2969 675.0713,26.6406 Q675.0713,26.9844 674.7275,27.3906 Q674.2275,27.9688 673.4307,28.2969 Q672.3525,28.75 671.0557,28.75 Q669.54,28.75 668.3369,28.125 Q667.3525,27.625 666.665,26.5625 Q665.9775,25.4844 665.9775,24.2031 L665.9775,23.0469 Q665.9775,21.7188 666.5869,20.5781 Q667.2119,19.4219 668.3057,18.8125 Q669.3994,18.1875 670.6338,18.1875 Q671.3682,18.1875 672.0088,18.3594 Q672.665,18.5156 673.2119,18.875 Z " fill="#000000"/><text fill="#000000" font-family="sans-serif" font-size="14" lengthAdjust="spacing" textLength="63.8066" x="690.9463" y="28.7969">Promotion</text><line style="stroke:#181818;stroke-width:0.5;" x1="605.5" x2="807.6992" y1="39" y2="39"/><text fill="#000000" font-family="sans-serif" font-size="14" lengthAdjust="spacing" textLength="45.9307" x="610.5" y="58.1074">Long id</text><text fill="#000000" font-family="sans-serif" font-size="14" lengthAdjust="spacing" textLength="90.2617" x="610.5" y="76.7285">Date startDate</text><text fill="#000000" font-family="sans-serif" font-size="14" lengthAdjust="spacing" textLength="86.3926" x="610.5" y="95.3496">Date endDate</text><text fill="#000000" font-family="sans-serif" font-size="14" lengthAdjust="spacing" textLength="100.3994" x="610.5" y="113.9707">Double discount</text><text fill="#000000" font-family="sans-serif" font-size="14" lengthAdjust="spacing" textLength="192.1992" x="610.5" y="132.5918">PromotionType promotionType</text><line style="stroke:#181818;stroke-width:0.5;" x1="605.5" x2="807.6992" y1="140.1055" y2="140.1055"/></g><!--class PromotionQuantity--><g id="elem_PromotionQuantity"><rect codeLine="47" fill="#F1F1F1" height="85.2422" id="PromotionQuantity" rx="2.5" ry="2.5" style="stroke:#181818;stroke-width:0.5;" width="147.9443" x="510.5" y="283"/><ellipse cx="525.5" cy="299" fill="#ADD1B2" rx="11" ry="11" style="stroke:#181818;stroke-width:1.0;"/><path d="M528.2656,294.875 Q528.4219,294.6563 528.6094,294.5469 Q528.7969,294.4375 529.0156,294.4375 Q529.3906,294.4375 529.625,294.7031 Q529.8594,294.9531 529.8594,295.5625 L529.8594,297.0156 Q529.8594,297.625 529.625,297.8906 Q529.3906,298.1563 529.0156,298.1563 Q528.6719,298.1563 528.4688,297.9531 Q528.2656,297.7656 528.1563,297.25 Q528.1094,296.8906 527.9219,296.7031 Q527.5938,296.3281 526.9844,296.1094 Q526.375,295.8906 525.75,295.8906 Q524.9844,295.8906 524.3438,296.2188 Q523.7188,296.5469 523.2188,297.2969 Q522.7344,298.0469 522.7344,299.0781 L522.7344,300.1719 Q522.7344,301.4063 523.625,302.2344 Q524.5156,303.0469 526.1094,303.0469 Q527.0469,303.0469 527.7031,302.7969 Q528.0938,302.6406 528.5156,302.2031 Q528.7813,301.9375 528.9219,301.8594 Q529.0781,301.7813 529.2813,301.7813 Q529.6094,301.7813 529.8594,302.0469 Q530.125,302.2969 530.125,302.6406 Q530.125,302.9844 529.7813,303.3906 Q529.2813,303.9688 528.4844,304.2969 Q527.4063,304.75 526.1094,304.75 Q524.5938,304.75 523.3906,304.125 Q522.4063,303.625 521.7188,302.5625 Q521.0313,301.4844 521.0313,300.2031 L521.0313,299.0469 Q521.0313,297.7188 521.6406,296.5781 Q522.2656,295.4219 523.3594,294.8125 Q524.4531,294.1875 525.6875,294.1875 Q526.4219,294.1875 527.0625,294.3594 Q527.7188,294.5156 528.2656,294.875 Z " fill="#000000"/><text fill="#000000" font-family="sans-serif" font-size="14" lengthAdjust="spacing" textLength="115.9443" x="539.5" y="304.7969">PromotionQuantity</text><line style="stroke:#181818;stroke-width:0.5;" x1="511.5" x2="657.4443" y1="315" y2="315"/><text fill="#000000" font-family="sans-serif" font-size="14" lengthAdjust="spacing" textLength="67.71" x="516.5" y="334.1074">int quantity</text><text fill="#000000" font-family="sans-serif" font-size="14" lengthAdjust="spacing" textLength="114.3926" x="516.5" y="352.7285">Category category</text><line style="stroke:#181818;stroke-width:0.5;" x1="511.5" x2="657.4443" y1="360.2422" y2="360.2422"/></g><!--class PromotionSeason--><g id="elem_PromotionSeason"><rect codeLine="52" fill="#F1F1F1" height="85.2422" id="PromotionSeason" rx="2.5" ry="2.5" style="stroke:#181818;stroke-width:0.5;" width="228.3506" x="693.5" y="283"/><ellipse cx="747.7808" cy="299" fill="#ADD1B2" rx="11" ry="11" style="stroke:#181818;stroke-width:1.0;"/><path d="M750.5464,294.875 Q750.7026,294.6563 750.8901,294.5469 Q751.0776,294.4375 751.2964,294.4375 Q751.6714,294.4375 751.9058,294.7031 Q752.1401,294.9531 752.1401,295.5625 L752.1401,297.0156 Q752.1401,297.625 751.9058,297.8906 Q751.6714,298.1563 751.2964,298.1563 Q750.9526,298.1563 750.7495,297.9531 Q750.5464,297.7656 750.437,297.25 Q750.3901,296.8906 750.2026,296.7031 Q749.8745,296.3281 749.2651,296.1094 Q748.6558,295.8906 748.0308,295.8906 Q747.2651,295.8906 746.6245,296.2188 Q745.9995,296.5469 745.4995,297.2969 Q745.0151,298.0469 745.0151,299.0781 L745.0151,300.1719 Q745.0151,301.4063 745.9058,302.2344 Q746.7964,303.0469 748.3901,303.0469 Q749.3276,303.0469 749.9839,302.7969 Q750.3745,302.6406 750.7964,302.2031 Q751.062,301.9375 751.2026,301.8594 Q751.3589,301.7813 751.562,301.7813 Q751.8901,301.7813 752.1401,302.0469 Q752.4058,302.2969 752.4058,302.6406 Q752.4058,302.9844 752.062,303.3906 Q751.562,303.9688 750.7651,304.2969 Q749.687,304.75 748.3901,304.75 Q746.8745,304.75 745.6714,304.125 Q744.687,303.625 743.9995,302.5625 Q743.312,301.4844 743.312,300.2031 L743.312,299.0469 Q743.312,297.7188 743.9214,296.5781 Q744.5464,295.4219 745.6401,294.8125 Q746.7339,294.1875 747.9683,294.1875 Q748.7026,294.1875 749.3433,294.3594 Q749.9995,294.5156 750.5464,294.875 Z " fill="#000000"/><text fill="#000000" font-family="sans-serif" font-size="14" lengthAdjust="spacing" textLength="111.2891" x="768.2808" y="304.7969">PromotionSeason</text><line style="stroke:#181818;stroke-width:0.5;" x1="694.5" x2="920.8506" y1="315" y2="315"/><text fill="#000000" font-family="sans-serif" font-size="14" lengthAdjust="spacing" textLength="75.4824" x="699.5" y="334.1074">String name</text><text fill="#000000" font-family="sans-serif" font-size="14" lengthAdjust="spacing" textLength="216.3506" x="699.5" y="352.7285">List&lt;Category&gt; affectedCategories</text><line style="stroke:#181818;stroke-width:0.5;" x1="694.5" x2="920.8506" y1="360.2422" y2="360.2422"/></g><!--link Product to InventoryData--><g id="link_Product_InventoryData"><path codeLine="57" d="M380.5,424.2 C380.5,445.21 380.5,460.61 380.5,478.98 " fill="none" id="Product-to-InventoryData" style="stroke:#181818;stroke-width:1.0;"/><polygon fill="#181818" points="380.5,484.98,384.5,475.98,380.5,479.98,376.5,475.98,380.5,484.98" style="stroke:#181818;stroke-width:1.0;"/></g><!--link History to Product--><g id="link_History_Product"><path codeLine="58" d="M380.5,129.77 C380.5,157.79 380.5,187.45 380.5,220.57 " fill="none" id="History-to-Product" style="stroke:#181818;stroke-width:1.0;"/><polygon fill="#181818" points="380.5,226.57,384.5,217.57,380.5,221.57,376.5,217.57,380.5,226.57" style="stroke:#181818;stroke-width:1.0;"/><text fill="#000000" font-family="sans-serif" font-size="13" lengthAdjust="spacing" textLength="54.2026" x="381.5" y="193.0283">productId</text></g><!--reverse link Promotion to PromotionQuantity--><g id="link_Promotion_PromotionQuantity"><path codeLine="59" d="M664.0321,164.1356 C642.4721,207.6056 623.41,246.03 605.13,282.89 " fill="none" id="Promotion-backto-PromotionQuantity" style="stroke:#181818;stroke-width:1.0;"/><polygon fill="none" points="672.03,148.01,658.6569,161.4696,669.4073,166.8015,672.03,148.01" style="stroke:#181818;stroke-width:1.0;"/></g><!--reverse link Promotion to PromotionSeason--><g id="link_Promotion_PromotionSeason"><path codeLine="60" d="M741.8773,164.6609 C759.7273,208.1309 775.28,246.03 790.42,282.89 " fill="none" id="Promotion-backto-PromotionSeason" style="stroke:#181818;stroke-width:1.0;"/><polygon fill="none" points="735.04,148.01,736.327,166.94,747.4276,162.3818,735.04,148.01" style="stroke:#181818;stroke-width:1.0;"/></g><!--SRC=[TL9DKy8m4BttL-JcgN9d66OGc84HATXwu1YIfMJCHqssEepwtqreOwdW9Tbz-_Ns9NT7nCeD1uDAKesralVCg06JrBcK2rfQgkwI17Ijo9GYbCQUo6T2I97jSdyzPDbZkFDDzbm4usa-MVbhkigAnJnFljlQZJNAe32wE5LmRf3F9tcsziRsPR8kbiKkv9xdXcHUCpodhOmkYU2X0AtmjgOAEe-3OrPKeNDW8yePCA6e99KLBEJDJBsNG3v0b4SCnE8Ih3KyjZT60jL4Q1-bqfGUM-ftqEZZCm_vo8NN4Uqd1Rf28t5es6jhuz62Enh9es_yW9nAS5sNXN0OPMtNgXtO9O_hLuqUBS2ezEEW40e8-iCXLLLFl4RfF_A56a-DMWnM143pw3P2SU6OgNMGglzcrQLtOzoszlz7uEbNXhSMk2dwTNqErBMa-o-zylACOeSneOS3C0JU8g9HCdwPD1ttNoM9weP8p1fUIDhfDVfAq-jz_are22S_]--></g></svg>